PathFileType	4	(X/Y/Z)	Patient4_TMGait_0pt5_01_right_33.trc.trc
DataRate	CameraRate	NumFrames	NumMarkers	Units	OrigDataRate	OrigDataStartFrame	OrigNumFrames
81.871345029240	81.871345029240	6	33	mm	81.871345029240	36	       141
Frame#	Time	L.ASIS			Sacral			L.Shoulder			Chest			R.Shoulder			Neck			R.ASIS			R.Thigh.Superior			R.Thigh.Lateral			R.Thigh.Inferior			R.Patella			L.Thigh.Superior			L.Thigh.Lateral			L.Thigh.Inferior			L.Patella			L.Shank.Superior			L.Shank.Lateral			L.Shank.Inferior			R.Shank.Superior			R.Shank.Lateral			R.Shank.Inferior			R.Heel			R.Midfoot.Superior			R.Midfoot.Lateral			R.Toe			L.Heel			L.Midfoot.Lateral			L.Midfoot.Superior			L.Toe			L.Elbow			L.Wrist			R.Elbow			R.Wrist			
		X1	Y1	Z1	X2	Y2	Z2	X3	Y3	Z3	X4	Y4	Z4	X5	Y5	Z5	X6	Y6	Z6	X7	Y7	Z7	X8	Y8	Z8	X9	Y9	Z9	X10	Y10	Z10	X11	Y11	Z11	X12	Y12	Z12	X13	Y13	Z13	X14	Y14	Z14	X15	Y15	Z15	X16	Y16	Z16	X17	Y17	Z17	X18	Y18	Z18	X19	Y19	Z19	X20	Y20	Z20	X21	Y21	Z21	X22	Y22	Z22	X23	Y23	Z23	X24	Y24	Z24	X25	Y25	Z25	X26	Y26	Z26	X27	Y27	Z27	X28	Y28	Z28	X29	Y29	Z29	X30	Y30	Z30	X31	Y31	Z31	X32	Y32	Z32	X33	Y33	Z33	

36	43.847500000000	820.756176756956	956.050756487200	334.906785511020	604.998902017169	998.545353808768	490.126554636775	777.604881337886	1417.105851168757	293.149960632725	876.484101584811	1359.068646590217	460.926073988195	785.492189767229	1442.932604035319	627.873244634975	777.422914050421	1488.342022736213	439.200752876830	833.172552799629	936.889777407648	609.896501394914	899.583948985597	749.795503813112	577.983183315490	833.795948636764	633.095250311292	640.165845713628	916.683374612426	589.322395391150	559.172016724673	930.618341098308	499.679363200069	566.036145621066	844.159890053812	733.890840949763	357.571091248746	741.048690949781	628.081784055989	297.654521042691	818.176674125030	537.524548990318	354.142070478631	807.292198468780	456.479920968651	354.913393118002	748.299438109592	396.851050949106	350.590250756730	617.058589721780	329.365902097373	303.091814739446	625.505779786054	202.468169848509	365.759431041818	906.170794268291	409.216749917412	577.038746377972	843.465008244211	304.678754412423	645.411607975632	887.556944839947	209.768614417316	584.354057941391	758.739332703805	43.026919161809	565.475528356023	930.199570134497	98.436498549906	594.677771825174	844.631551620523	36.955873834217	637.433238648565	1051.582960456679	47.335429717343	619.007233318325	450.959210597074	90.800028907854	404.668380562059	521.739416553958	62.628178798161	327.605847509840	617.750617775268	104.521962808506	350.138121996736	727.170546273943	36.243829214145	329.265980416438	751.754312517931	1061.105952519734	180.794746753104	906.738948341882	848.849926901560	167.735940104115	709.574014515574	1126.678809860892	786.799572948008	811.638800336737	887.851011752522	818.641582585153	
37	43.859714285714	820.020828707122	956.425827359904	337.242521184596	605.029269392191	998.939816762209	493.224586695757	776.867455292425	1418.040506243958	296.090385435022	876.465422976754	1359.588320702510	463.324444553983	786.219081593428	1442.966414025652	630.825179409619	777.268578434975	1488.885185801233	442.354210049581	833.700602191292	937.512746952780	611.959104544456	898.899406819893	749.200009432443	580.250386589840	831.903276473714	632.984653197961	641.770180338645	914.382573696038	588.802245042057	560.555908684974	927.520633247716	499.040709841000	566.812916462241	848.185036579437	735.603614831067	359.818018558039	749.298098048687	627.372714916616	299.085272983072	829.129163602615	538.323967311842	355.553008222076	819.219675654905	455.909354265748	355.430297369135	757.959664334471	396.496896529196	351.218141781622	624.538186897365	333.647603754524	303.410982623405	628.514148475110	206.296944103600	365.303299642154	902.536652581698	408.714488893336	577.762115628684	839.278032932225	304.412100357965	645.940958383489	882.474913271689	209.379829948091	584.552521043178	752.615821677736	43.008905747305	565.565564972355	924.169736591911	98.327950579876	594.696990311746	838.498657700699	36.910175917510	637.532289852497	1045.515214737663	47.050892849568	619.082231178494	449.974767882935	102.751621139342	404.064656716952	518.916032657832	70.111196199451	327.289002280817	616.885693119791	107.103258730979	349.194803670143	721.680727231731	35.377987385893	329.214406798256	748.170170162870	1062.529511359178	183.161938501806	901.122707490759	848.906380990141	168.496283588147	716.541382311186	1125.297005915832	790.589255397020	828.321404188064	890.512479337540	819.112599271776	
38	43.871928571429	819.084700832459	956.569189850732	339.519647331522	604.914193520330	999.233945463212	496.296642685703	775.930736984900	1418.782232507556	298.903091761898	876.371982249498	1359.936717805347	465.542947373586	786.989432968258	1442.877330463150	633.641582189871	777.006220450821	1489.274664910423	445.376608191060	834.063141048658	937.983049293332	613.907420988680	897.974210471298	748.478609045036	582.305777725481	830.027689234117	632.863353969343	643.397811133957	911.896507857276	588.252117471002	561.802682738938	924.274621766153	498.362461854466	567.624369827620	852.291425401255	737.473796878476	362.165843755375	758.003175589279	626.820712406478	300.400576136492	840.402506503387	539.483262125926	357.082768349250	831.539916550338	455.772681846993	356.197177957608	768.245937052388	396.472998435325	351.904753686838	632.861604380386	338.300890608077	303.680529359743	632.323138821145	210.676776985474	364.835950506676	898.774113645009	408.163570752683	578.524327136999	834.964731179946	304.060594296908	646.467787812428	877.333221516617	208.956583400156	584.774114428982	746.463492417790	42.964725485668	565.646585428613	918.109147202074	98.200501875681	594.713378918810	832.336561254017	36.840551957547	637.624165858680	1039.416421306574	46.777201377788	619.142764702535	450.102860159991	115.929632054786	403.436577837696	516.798360783855	78.699231382143	326.939132868539	616.594037121566	110.189648811322	348.274976912105	716.173299911196	34.402682496927	329.129038609128	744.590279174009	1063.718966376196	185.506779134310	895.303114687721	848.630084565169	169.214950802881	723.482946226998	1124.046206966252	794.329780485185	845.177771043082	893.891365586474	819.283833499247	
39	43.884142857143	817.949287140332	956.474999787933	341.710331325420	604.636855933402	999.431362247081	499.309005679288	774.832473524189	1419.341485213829	301.567942068706	876.210082847643	1360.100276999091	467.565745203435	787.810295008965	1442.667347790607	636.301633928522	776.673900085883	1489.517739708057	448.245336442196	834.245908362125	938.315782412489	615.755687407011	896.862122625569	747.706338037718	584.112203737025	828.245114391347	632.746183491359	645.027198823653	909.318247440469	587.699839840250	562.910085950626	920.967725583374	497.663965406675	568.460914643702	856.371180286762	739.530560067354	364.604294419534	766.962226762445	626.523185999677	301.617151327238	851.761728516208	541.068720662971	358.729179065618	844.059747147654	456.142873172344	357.193279051027	778.963900783045	396.864378076584	352.653955070236	641.843971383431	343.328931122803	303.943205867217	636.858691295941	215.593124627398	364.386129730302	894.959845204021	407.576693145976	579.308014051624	830.599294919369	303.651092362479	646.995890845774	872.176120579065	208.511888668599	585.014506978256	740.296295262612	42.907889631631	565.729582173499	912.032233585646	98.069933489949	594.734006431105	826.159995730171	36.761116318716	637.718005724272	1033.299784365590	46.534237803194	619.194436193394	451.396019304762	130.156123019038	402.810523918165	515.456297748083	88.319787217343	326.577291944294	616.865633890569	113.808244040565	347.414401438421	710.683895592245	33.294406382817	329.017733601559	741.004049377344	1064.667695252200	187.852379434636	889.262833164589	848.020248618413	169.907378298471	730.436558698592	1122.915747787946	797.986987480315	862.154235057713	898.014414060875	819.117776646828	
40	43.896357142857	816.623802365427	956.171678957990	343.791850086413	604.186665722173	999.551530021112	502.242076678355	773.611691624981	1419.739877569821	304.068168008762	875.985162131803	1360.088191194972	469.383440122530	788.679013700365	1442.358146949451	638.786339353754	776.310542968132	1489.634753272270	450.937465916641	834.248428977263	938.534366706406	617.518113289093	895.618912709978	746.944798442197	585.676464866521	826.573694462300	632.634281650983	646.630519871455	906.717179064382	587.162626650634	563.893787887115	917.661040053088	496.960515112225	569.300450002254	860.318581279224	741.805749628743	367.112261118223	775.960310627189	626.576514458517	302.754867536588	862.983818648994	543.138275470087	360.476251680999	856.589561912616	457.079412690011	358.372325823579	789.910552046605	397.748636610104	353.458967699275	651.281801701967	348.721349184262	304.234767177216	642.030075310614	221.006751915503	363.978059971167	891.146211850514	406.966465257153	580.089445064699	826.232340339521	303.210005176677	647.520165093738	867.031491465296	208.058636962190	585.265147256409	734.124081966930	42.848458042364	565.821885427455	905.948665869871	97.949451380414	594.763009219129	819.979948616549	36.682983787308	637.819529979868	1027.174483583057	46.337086237192	619.241386474741	453.859464144989	145.168108646640	402.208826026722	514.951107484872	98.819290322944	326.222752895694	617.699191331414	117.956366910681	346.641185886767	705.298175939473	32.064668942979	328.898285247926	737.402572751717	1065.384483364920	190.219244436611	882.981273409434	847.088971653280	170.591340382649	737.448358624084	1121.904087439099	801.519892379086	879.200442888901	902.912150784614	818.564842072125	
41	43.908571428571	815.120722965495	955.717998367423	345.748348158361	603.559928499794	999.628913304706	505.088924990411	772.304724642977	1420.007274171023	306.393066668679	875.703500134420	1359.929752789607	470.993967923416	789.588427574695	1441.987385999918	641.081247651113	775.953009348219	1489.655907975699	453.433395424409	834.082827406705	938.665748116806	619.203552468568	894.291943550571	746.234868588052	587.037709527147	824.981996624595	632.520731650423	648.177378901233	904.130089174670	586.647099062013	564.778899017176	914.381023628319	496.263551421012	570.113018156072	864.038700132527	744.329060769734	369.662387658907	784.793925667729	627.064348060555	303.834552536181	873.876129133271	545.734489266203	362.300141991105	868.955023432597	458.624077987404	359.677142242389	800.892090459178	399.186014954753	354.307652857340	660.973144192865	354.446720394447	304.582711728961	647.743019646030	226.848889758445	363.631929087514	887.355479756005	406.345292989531	580.841179880661	821.889560101163	302.761564403168	648.031484757189	861.908957533513	207.609060402355	585.514683388865	727.952235024859	42.792838017717	565.927220253881	899.863470479834	97.848094770218	594.801298487041	813.803260845189	36.613702131921	637.930976209620	1021.045646199717	46.194154884782	619.285799704108	457.450784879532	160.615327241830	401.647969380855	515.338929175239	109.958072387108	325.891305202461	619.113664890876	122.594257945385	345.974566385397	700.174080639563	30.767370753720	328.795471197723	733.781764835137	1065.891848434306	192.622174033932	876.438941820537	845.860497938367	171.286204084669	744.565638091541	1121.019008271936	804.881988904636	896.264640742052	908.616160299393	817.566173298989	
